<svg version="1.1" xmlns="http://www.w3.org/2000/svg" xmlns:xlink="http://www.w3.org/1999/xlink" width="700" height="700" viewBox="610,122.5,700,700"><g id="document" fill="#ffffff" fill-rule="nonzero" stroke="#000000" stroke-width="0" stroke-linecap="butt" stroke-linejoin="miter" stroke-miterlimit="10" stroke-dasharray="" stroke-dashoffset="0" font-family="none" font-weight="none" font-size="none" text-anchor="none" style="mix-blend-mode: normal"><rect x="610" y="87.5" transform="scale(1,1.4)" width="700" height="500" id="Shape 1 1" vector-effect="non-scaling-stroke"/></g><g fill="none" fill-rule="nonzero" stroke="#000000" stroke-width="1" stroke-linecap="round" stroke-linejoin="round" stroke-miterlimit="10" stroke-dasharray="" stroke-dashoffset="0" font-family="none" font-weight="none" font-size="none" text-anchor="none" style="mix-blend-mode: normal"><g id="stage"><g id="layer1 1"><path d="M746,348" id="Path 1" fill="none"/><path d="M738,696v-314h442v314z" id="Path 1" fill-opacity="0" fill="#000000"/><path d="M738,384l217,-152" id="Path 1" fill-opacity="0" fill="#000000"/><path d="M954.5301,232.32915l223.4699,147.67085" id="Path 1" fill-opacity="0" fill="#000000"/><path d="M913,696v-141h101v141z" id="Path 1" fill-opacity="0" fill="#000000"/><path d="M768,510v-94h112v94z" id="Path 1" fill-opacity="0" fill="#000000"/><path d="M1030,510v-93h117v93z" id="Path 1" fill-opacity="0" fill="#000000"/><path d="M1103.25788,330.60976v-85.61297" id="Path 1" fill-opacity="0" fill="#000000"/><path d="M1103.25788,244.99678h-34.31639" id="Path 1" fill-opacity="0" fill="#000000"/><path d="M1068.94148,244.99678v62.03738" id="Path 1" fill-opacity="0" fill="#000000"/><path d="M768,463h111.0045" id="Path 1" fill-opacity="0" fill="#000000"/><path d="M823,510v-93.00538" id="Path 1" fill-opacity="0" fill="#000000"/><path d="M1087,510v-92.02174" id="Path 1" fill-opacity="0" fill="#000000"/><path d="M1030,463h116.01724" id="Path 1" fill-opacity="0" fill="#000000"/><path d="M922,625h15" id="Path 1" fill-opacity="0" fill="#000000"/></g></g></g></svg>